inDegrees=yes
name=ik_S53_A09_T01
DataType=double
version=3
OpenSimVersion=4.3-2021-08-27-4bc7ad9
endheader
time	pelvis_tilt	pelvis_list	pelvis_rotation	pelvis_tx	pelvis_ty	pelvis_tz	hip_flexion_r	hip_adduction_r	hip_rotation_r	knee_angle_r	knee_angle_r_beta	ankle_angle_r	subtalar_angle_r	mtp_angle_r	hip_flexion_l	hip_adduction_l	hip_rotation_l	knee_angle_l	knee_angle_l_beta	ankle_angle_l	subtalar_angle_l	mtp_angle_l	lumbar_extension	lumbar_bending	lumbar_rotation	arm_flex_r	arm_add_r	arm_rot_r	elbow_flex_r	pro_sup_r	wrist_flex_r	wrist_dev_r	arm_flex_l	arm_add_l	arm_rot_l	elbow_flex_l	pro_sup_l	wrist_flex_l	wrist_dev_l
18.13333333333359	-5.663217389024831	-5.938512251427969	36.10768093267551	0	0.9399999999999999	0	42.36930977142189	-10.14919229111784	-10.09214770749126	52.84834938442651	0.922377701002561	0	0	0	42.36930977142189	-10.14919229111784	-10.09214770749126	52.84834938442651	0.922377701002561	0	0	0	-6.700023453204639	-1.737763559016933	2.687250959637601	68.06686759776612	2.224357894298284	10.48862207534094	35.67783883024461	122.8920977202902	0	0	55.43847773101389	-18.30979768497694	11.9575078559103	48.05862756926544	81.26951347376196	0	0
18.15000000000025	-5.660092928442888	-5.948481187760122	36.18085306143868	0	0.9399999999999999	0	42.37021923636215	-10.14901217644612	-10.09207637267898	52.84884693266395	0.9223863848574919	0	0	0	42.37021923636215	-10.14901217644612	-10.09207637267898	52.84884693266395	0.9223863848574919	0	0	0	-6.710431680459151	-1.73284323036093	2.604722563540079	68.07052331783449	2.240987743654925	10.47445436387745	35.7384608480338	123.061318309423	0	0	55.6100386076705	-18.42028774637466	11.16121636854527	47.87982368595107	81.44372419232207	0	0
18.16666666666692	-5.657395199084029	-5.960995179669782	36.34005425760064	0	0.9399999999999999	0	42.37117715644708	-10.14882288675912	-10.09200133610154	52.84937169503189	0.922395543688603	0	0	0	42.37117715644708	-10.14882288675912	-10.09200133610154	52.84937169503189	0.922395543688603	0	0	0	-6.724538529108109	-1.725622842685809	2.501538676542972	68.08367022138439	1.955009800596386	10.34367952371327	35.90028352270073	123.0690478577005	0	0	55.9005729608099	-18.73205173035958	10.12506112059645	47.61942112228008	81.65862587105208	0	0
18.18333333333358	-5.655887465308161	-5.969143074872965	36.47516217413131	0	0.9399999999999999	0	42.37220386988442	-10.14861984788077	-10.09192085794128	52.8499333194838	0.9224053458844484	0	0	0	42.37220386988442	-10.14861984788077	-10.09192085794128	52.8499333194838	0.9224053458844484	0	0	0	-6.738368755549974	-1.71076313700648	2.380783954232382	68.1292201187339	1.8620615384295	10.27686464577906	35.98155823670314	123.2017379958621	0	0	56.2025174474436	-19.16116331258286	9.119573751369606	47.19534609785372	81.90534989049382	0	0
18.20000000000025	-5.658435071108596	-5.974178066631538	36.62388291522335	0	0.9399999999999999	0	42.37290534639632	-10.14848155175776	-10.09186597748053	52.850317900009	0.9224120580808524	0	0	0	42.37290534639632	-10.14848155175776	-10.09186597748053	52.850317900009	0.9224120580808524	0	0	0	-6.751438762473272	-1.695812178725309	2.285400914322009	68.14480266153677	1.749048581784723	10.16131010706745	36.15092775448854	123.4698530766614	0	0	56.45467440664275	-19.60371395428647	8.314859338110825	46.81384544201217	81.64247875558966	0	0
18.21666666666691	-5.663573276450625	-5.967588692235863	36.71550979785832	0	0.9399999999999999	0	42.3734762311348	-10.14836937346866	-10.09182140718956	52.85063171167897	0.9224175351277245	0	0	0	42.3734762311348	-10.14836937346866	-10.09182140718956	52.85063171167897	0.9224175351277245	0	0	0	-6.758259116156482	-1.673609433380462	2.210238627670589	68.14496828194736	1.654332654586337	10.0434460894982	36.36934677958658	123.895510245386	0	0	56.59013682433422	-19.96053336954921	7.816023115126424	46.59451905159566	81.44338624904078	0	0
18.23333333333358	-5.66188413460141	-5.975184723180629	36.85702770048583	0	0.9399999999999999	0	42.37419419753324	-10.14822808717737	-10.09176529358761	52.8510256192949	0.9224244101125711	0	0	0	42.37419419753324	-10.14822808717737	-10.09176529358761	52.8510256192949	0.9224244101125711	0	0	0	-6.770780319281578	-1.660249249913702	2.09888268939914	68.11681081999241	1.563190083896717	9.85461122848656	36.59535309713211	124.4309485622909	0	0	56.7869298250926	-20.58607860961165	7.257380016957197	46.15170733890531	81.01591842322375	0	0
18.25000000000025	-5.664068595485964	-6.0056439542226	36.93761916163731	0	0.9399999999999999	0	42.37481957358318	-10.14810559420006	-10.09171656234999	52.8513700764444	0.9224304220239619	0	0	0	42.37481957358318	-10.14810559420006	-10.09171656234999	52.8513700764444	0.9224304220239619	0	0	0	-6.795394134191859	-1.673695017986229	2.045298874719283	68.09221111499741	1.503344305465341	9.61233205614046	36.80067138349396	124.8326103890512	0	0	56.86916451769184	-20.94720107331589	7.001409334645599	46.27507272487676	81.02254919869796	0	0
18.26666666666691	-5.644287090271217	-6.001537738314688	37.04078418233573	0	0.9399999999999999	0	42.37548410680309	-10.14797515973432	-10.09166470330842	52.85173520576745	0.9224367947328447	0	0	0	42.37548410680309	-10.14797515973432	-10.09166470330842	52.85173520576745	0.9224367947328447	0	0	0	-6.785027871613011	-1.665293341832114	1.951748066524541	67.994159604519	1.496953513396094	9.386719291559695	36.8930267022054	125.0255824256231	0	0	56.99187825730216	-21.33875646467425	6.600634205089346	45.62550771887162	80.88830999023658	0	0
18.28333333333358	-5.636025998640896	-6.006105654810114	37.18567103517081	0	0.9399999999999999	0	42.37606705766667	-10.14786080786975	-10.09161922451272	52.85205553284712	0.9224423854950683	0	0	0	42.37606705766667	-10.14786080786975	-10.09161922451272	52.85205553284712	0.9224423854950683	0	0	0	-6.792651738830575	-1.649470743283904	1.818886720331854	67.94710396834679	1.474711360921815	9.205322451875373	36.99774759801009	125.2134275949261	0	0	57.23815661898024	-21.92742531309992	5.9982146061393	44.58119005464902	80.82626967176434	0	0
18.30000000000024	-5.643056060643454	-6.037614560568262	37.30973742541835	0	0.9399999999999999	0	42.37699300275333	-10.14767853149116	-10.09154680914141	52.85256232661791	0.9224512307149971	0	0	0	42.37699300275333	-10.14767853149116	-10.09154680914141	52.85256232661791	0.9224512307149971	0	0	0	-6.824308580304966	-1.655993422249668	1.740476966145232	68.01396204822034	1.458525657733358	9.132169630811072	36.97686892378262	125.2198698010835	0	0	57.43899388099772	-22.33506060784006	5.30312904614404	44.2118755220652	81.16733107266764	0	0
18.31666666666691	-5.648786668276953	-6.070980844187781	37.4736741265657	0	0.9399999999999999	0	42.37778462183062	-10.14752304169009	-10.09148498181153	52.85299624330481	0.9224588039898629	0	0	0	42.37778462183062	-10.14752304169009	-10.09148498181153	52.85299624330481	0.9224588039898629	0	0	0	-6.861602719481977	-1.653043135026886	1.598899913548266	68.07715605646489	1.415732901211596	9.069628875620751	37.13166728225364	125.3300212358508	0	0	57.74817481817324	-22.96455630205607	4.492622533359352	43.30938583538026	82.10915834101303	0	0
18.33333333333357	-5.642525694207842	-6.091609205807649	37.62852894156428	0	0.9399999999999999	0	42.3785101998275	-10.14738079961538	-10.09142837852453	52.8533944638238	0.9224657542490683	0	0	0	42.3785101998275	-10.14738079961538	-10.09142837852453	52.8533944638238	0.9224657542490683	0	0	0	-6.875792272703197	-1.659633140209008	1.52477034638891	68.0090048446535	1.355250689687868	8.878700700809397	37.20219970821936	125.4532794955858	0	0	58.00952009119464	-23.35819825968577	3.973197437081577	42.75557883141956	82.91886563521965	0	0
18.35000000000024	-5.647762762178896	-6.083026403007764	37.90587560777274	0	0.9399999999999999	0	42.37993851578192	-10.14710025284783	-10.09131679068864	52.85417621640871	0.922479398405611	0	0	0	42.37993851578192	-10.14710025284783	-10.09131679068864	52.85417621640871	0.922479398405611	0	0	0	-6.899364457046858	-1.60055916915608	1.256987099534587	68.06588395511102	1.297252958103457	8.86519135915141	37.33850497054501	125.655023057831	0	0	58.475061028646	-24.30054321981131	2.923036843594939	40.88920245290558	85.32726803639478	0	0
18.36666666666691	-5.639919819461662	-6.105126905488262	38.02939874995169	0	0.9399999999999999	0	42.38066342379865	-10.14695843959367	-10.09126029907258	52.85457420074139	0.9224863445425876	0	0	0	42.38066342379865	-10.14695843959367	-10.09126029907258	52.85457420074139	0.9224863445425876	0	0	0	-6.912676228501911	-1.610343600138427	1.189814915829305	67.94307589230289	1.236842101097282	8.728483831789926	37.47469144469335	125.7181342301751	0	0	58.81561015961304	-24.77802659636262	2.771450996223133	40.23055466523783	85.75524752208489	0	0
18.38333333333357	-5.650170402097499	-6.139670535545201	38.28303594577081	0	0.9399999999999999	0	42.38249933107631	-10.14659835647492	-10.0911169529084	52.85557860318248	0.9225038746721996	0	0	0	42.38249933107631	-10.14659835647492	-10.0911169529084	52.85557860318248	0.9225038746721996	0	0	0	-6.955759503208446	-1.603399622320174	1.042431764063362	67.84957812502394	1.056368760529406	8.465817287166127	37.88470627043164	126.2226215689946	0	0	59.4059593763052	-25.50842064299123	2.539816159884128	38.30540515193634	86.42785784089793	0	0
18.40000000000024	-5.64390995155336	-6.16278198036147	38.38586246443445	0	0.9399999999999999	0	42.38344127464815	-10.14641461763421	-10.09104365675093	52.85609605970619	0.9225129059922743	0	0	0	42.38344127464815	-10.14641461763421	-10.09104365675093	52.85609605970619	0.9225129059922743	0	0	0	-6.972942112647763	-1.608789656694528	0.9545065199691082	67.78458590569478	0.9940558815624237	8.436347981919765	38.07004037567229	126.3053103418249	0	0	59.83492709458804	-25.78821503044122	2.409244361458527	37.41148457041871	86.97640325342263	0	0
18.4166666666669	-5.627233109326766	-6.180648561179616	38.56192653846388	0	0.9399999999999999	0	42.38436282561518	-10.14623513342731	-10.09097200982731	52.85660267930954	0.922521748172408	0	0	0	42.38436282561518	-10.14623513342731	-10.09097200982731	52.85660267930954	0.922521748172408	0	0	0	-6.986165707401738	-1.597321254008802	0.7735588701303484	67.7023022341963	0.9665408055171646	8.401596407813884	38.20842108649641	126.416966161005	0	0	60.39928740131952	-26.3397340539841	2.151651537920235	35.72094498287339	88.54561146490796	0	0
18.43333333333357	-5.647663008192826	-6.218772263681585	38.58728377449029	0	0.9399999999999999	0	42.38517670924571	-10.1460791813852	-10.09090940668228	52.85705681862178	0.9225296743986693	0	0	0	42.38517670924571	-10.1460791813852	-10.09090940668228	52.85705681862178	0.9225296743986693	0	0	0	-7.027510806098898	-1.611526588738634	0.7593639367744148	67.71668933564982	0.9067681320705848	8.361656594184652	38.3402631277766	126.490365546932	0	0	60.90220281082036	-26.43190285785541	2.370870301710198	35.38830577601203	88.4568007486149	0	0
18.45000000000023	-5.637436158816834	-6.255524405897269	38.69486125987003	0	0.9399999999999999	0	42.38609549433997	-10.1459005859194	-10.09083804852476	52.85756219536349	0.922538494886775	0	0	0	42.38609549433997	-10.1459005859194	-10.09083804852476	52.85756219536349	0.922538494886775	0	0	0	-7.048684327407593	-1.632556036332057	0.6868824889268843	67.72605292130733	0.8383941499766916	8.29758574041929	38.43595927752935	126.5441956204529	0	0	61.36131280167152	-26.82954595933956	2.540199561469317	34.56500005135318	89.02132159918897	0	0
